<svg width="585" height="249" viewBox="0 0 585 249" fill="none" xmlns="http://www.w3.org/2000/svg">
<path d="M30.2497 58.8431L8.99499 13.6769C5.36816 5.96985 3.31626 -2.38361 2.95954 -10.8939L2.79498 -14.8197C1.27066 -51.1856 30.341 -81.5 66.7388 -81.5H566C601.346 -81.5 630 -52.8462 630 -17.5V174.133C630 202.794 602.457 223.411 574.958 215.334C564.392 212.23 553.037 213.305 543.241 218.336L504.66 238.148C491.617 244.845 476.669 246.862 462.318 243.859L358.882 222.218C348.777 220.104 339.334 215.577 331.358 209.023L278.115 165.276C269.52 158.214 259.233 153.514 248.269 151.64L157.766 136.169C151.294 135.063 145.031 132.967 139.196 129.956L58.805 88.4639C46.2858 82.0023 36.2485 71.5905 30.2497 58.8431Z" fill="#FF702C"/>
<path d="M203.897 45.0735L198.361 23.7445C197.455 20.2544 196.846 16.694 196.54 13.1013L195.418 -0.0651398C192.234 -37.4201 221.696 -69.5 259.187 -69.5H547.5C582.846 -69.5 611.5 -40.8462 611.5 -5.5V73.3401C611.5 93.8549 601.666 113.126 585.054 125.164L583.046 126.619C579.029 129.53 574.687 131.964 570.108 133.872L554.414 140.411C534.773 148.594 512.35 146.482 494.583 134.775L455.045 108.72C443.033 100.805 428.705 97.1672 414.372 98.3938L334.492 105.23C328.527 105.741 322.52 105.412 316.646 104.253L253.456 91.7849C229.335 87.0258 210.073 68.8704 203.897 45.0735Z" fill="black" stroke="black"/>
</svg>
